<svg width="1440" height="1024" viewBox="0 0 1440 1024" fill="none" xmlns="http://www.w3.org/2000/svg">
<g clip-path="url(#clip0)">
<rect width="1440" height="1024" fill="white"/>
<path d="M1404.6 1V1025" stroke="#9FE1FC" stroke-width="2" stroke-miterlimit="10"/>
<path d="M1364.6 1V1025" stroke="#9FE1FC" stroke-width="2" stroke-miterlimit="10"/>
<path d="M1324.6 1V1025" stroke="#9FE1FC" stroke-width="2" stroke-miterlimit="10"/>
<path d="M1284.6 1V1025" stroke="#9FE1FC" stroke-width="2" stroke-miterlimit="10"/>
<path d="M1244.6 1V1025" stroke="#9FE1FC" stroke-width="2" stroke-miterlimit="10"/>
<path d="M1204.6 1V1025" stroke="#9FE1FC" stroke-width="2" stroke-miterlimit="10"/>
<path d="M1164.6 1V1025" stroke="#9FE1FC" stroke-width="2" stroke-miterlimit="10"/>
<path d="M1124.6 1V1025" stroke="#9FE1FC" stroke-width="2" stroke-miterlimit="10"/>
<path d="M1084.6 1V1025" stroke="#9FE1FC" stroke-width="2" stroke-miterlimit="10"/>
<path d="M1044.6 1V1025" stroke="#9FE1FC" stroke-width="2" stroke-miterlimit="10"/>
<path d="M1004.6 1V1025" stroke="#9FE1FC" stroke-width="2" stroke-miterlimit="10"/>
<path d="M964.6 1V1025" stroke="#9FE1FC" stroke-width="2" stroke-miterlimit="10"/>
<path d="M924.6 1V1025" stroke="#9FE1FC" stroke-width="2" stroke-miterlimit="10"/>
<path d="M884.6 1V1025" stroke="#9FE1FC" stroke-width="2" stroke-miterlimit="10"/>
<path d="M844.6 1V1025" stroke="#9FE1FC" stroke-width="2" stroke-miterlimit="10"/>
<path d="M804.6 1V1025" stroke="#9FE1FC" stroke-width="2" stroke-miterlimit="10"/>
<path d="M764.6 1V1025" stroke="#9FE1FC" stroke-width="2" stroke-miterlimit="10"/>
<path d="M724.6 1V1025" stroke="#9FE1FC" stroke-width="2" stroke-miterlimit="10"/>
<path d="M684.6 1V1025" stroke="#9FE1FC" stroke-width="2" stroke-miterlimit="10"/>
<path d="M644.6 1V1025" stroke="#9FE1FC" stroke-width="2" stroke-miterlimit="10"/>
<path d="M604.6 1V1025" stroke="#9FE1FC" stroke-width="2" stroke-miterlimit="10"/>
<path d="M564.6 1V1025" stroke="#9FE1FC" stroke-width="2" stroke-miterlimit="10"/>
<path d="M524.6 1V1025" stroke="#9FE1FC" stroke-width="2" stroke-miterlimit="10"/>
<path d="M484.6 1V1025" stroke="#9FE1FC" stroke-width="2" stroke-miterlimit="10"/>
<path d="M444.6 1V1025" stroke="#9FE1FC" stroke-width="2" stroke-miterlimit="10"/>
<path d="M404.6 1V1025" stroke="#9FE1FC" stroke-width="2" stroke-miterlimit="10"/>
<path d="M364.6 1V1025" stroke="#9FE1FC" stroke-width="2" stroke-miterlimit="10"/>
<path d="M324.6 1V1025" stroke="#9FE1FC" stroke-width="2" stroke-miterlimit="10"/>
<path d="M284.6 1V1025" stroke="#9FE1FC" stroke-width="2" stroke-miterlimit="10"/>
<path d="M244.6 1V1025" stroke="#9FE1FC" stroke-width="2" stroke-miterlimit="10"/>
<path d="M204.6 1V1025" stroke="#9FE1FC" stroke-width="2" stroke-miterlimit="10"/>
<path d="M164.6 1V1025" stroke="#9FE1FC" stroke-width="2" stroke-miterlimit="10"/>
<path d="M124.6 1V1025" stroke="#9FE1FC" stroke-width="2" stroke-miterlimit="10"/>
<path d="M84.6 1V1025" stroke="#9FE1FC" stroke-width="2" stroke-miterlimit="10"/>
<path d="M44.6 1V1025" stroke="#9FE1FC" stroke-width="2" stroke-miterlimit="10"/>
<path d="M1450 1001H10" stroke="#9FE1FC" stroke-width="2" stroke-miterlimit="10"/>
<path d="M1450 961H10" stroke="#9FE1FC" stroke-width="2" stroke-miterlimit="10"/>
<path d="M1450 921H10" stroke="#9FE1FC" stroke-width="2" stroke-miterlimit="10"/>
<path d="M1450 881H10" stroke="#9FE1FC" stroke-width="2" stroke-miterlimit="10"/>
<path d="M1450 841H10" stroke="#9FE1FC" stroke-width="2" stroke-miterlimit="10"/>
<path d="M1450 801H10" stroke="#9FE1FC" stroke-width="2" stroke-miterlimit="10"/>
<path d="M1450 761H10" stroke="#9FE1FC" stroke-width="2" stroke-miterlimit="10"/>
<path d="M1450 721H10" stroke="#9FE1FC" stroke-width="2" stroke-miterlimit="10"/>
<path d="M1450 681H10" stroke="#9FE1FC" stroke-width="2" stroke-miterlimit="10"/>
<path d="M1450 641H10" stroke="#9FE1FC" stroke-width="2" stroke-miterlimit="10"/>
<path d="M1450 601H10" stroke="#9FE1FC" stroke-width="2" stroke-miterlimit="10"/>
<path d="M1450 561H10" stroke="#9FE1FC" stroke-width="2" stroke-miterlimit="10"/>
<path d="M1450 521H10" stroke="#9FE1FC" stroke-width="2" stroke-miterlimit="10"/>
<path d="M1450 481H10" stroke="#9FE1FC" stroke-width="2" stroke-miterlimit="10"/>
<path d="M1450 441H10" stroke="#9FE1FC" stroke-width="2" stroke-miterlimit="10"/>
<path d="M1450 401H10" stroke="#9FE1FC" stroke-width="2" stroke-miterlimit="10"/>
<path d="M1450 361H10" stroke="#9FE1FC" stroke-width="2" stroke-miterlimit="10"/>
<path d="M1450 321H10" stroke="#9FE1FC" stroke-width="2" stroke-miterlimit="10"/>
<path d="M1450 281H10" stroke="#9FE1FC" stroke-width="2" stroke-miterlimit="10"/>
<path d="M1450 241H10" stroke="#9FE1FC" stroke-width="2" stroke-miterlimit="10"/>
<path d="M1450 201H10" stroke="#9FE1FC" stroke-width="2" stroke-miterlimit="10"/>
<path d="M1450 161H10" stroke="#9FE1FC" stroke-width="2" stroke-miterlimit="10"/>
<path d="M1450 121H10" stroke="#9FE1FC" stroke-width="2" stroke-miterlimit="10"/>
<path d="M1450 81H10" stroke="#9FE1FC" stroke-width="2" stroke-miterlimit="10"/>
<path d="M1450 41H10" stroke="#9FE1FC" stroke-width="2" stroke-miterlimit="10"/>
<path d="M1450 1H10" stroke="#9FE1FC" stroke-width="2" stroke-miterlimit="10"/>
<path d="M1284.16 1V1025" stroke="#FF5A81" stroke-width="2" stroke-miterlimit="10"/>
<path d="M86.54 42C87.62 40.88 87.02 39.41 85.97 38.83C85.37 25.94 85.08 13.04 85.12 0.14001C85.13 -2.42999 81.13 -2.43999 81.12 0.14001C81.08 13.63 81.38 27.11 82.04 40.58C82.04 40.67 82.06 40.74 82.08 40.82C69.14 54.02 55.36 66.38 41.76 78.9C41.05 79.56 41 80.37 41.33 81.03C41.32 81.1 41.31 81.17 41.31 81.25V117.86C41.3 117.87 41.28 117.88 41.27 117.9C35.8 124.08 30.17 130.11 24.42 136.01C17.93 130.9 11.43 125.79 4.94003 120.68C4.94003 120.63 4.95003 120.58 4.95003 120.53C4.30003 107.11 4.08003 93.7 4.27003 80.28C4.35003 80.23 4.42003 80.18 4.50003 80.12C18 68.44 28.32 53.47 42.03 42.12C43.07 42.18 44.15 41.55 44.12 40.2C43.85 26.76 44.4 13.34 45.77 -0.0299902C46.03 -2.58999 42.03 -2.56999 41.77 -0.0299902C40.45 12.8 39.9 25.66 40.1 38.55C34.41 43.14 29.32 48.37 24.37 53.76C20 51.47 15.8 48.86 11.92 45.79C9.54003 43.9 7.28003 41.06 4.38003 39.88C4.70003 26.55 4.57003 13.24 4.00003 -0.0699903C3.89003 -2.62999 -0.10997 -2.64999 3.03194e-05 -0.0699903C0.58003 13.41 0.70003 26.9 0.37003 40.39C0.37003 40.72 0.42003 41 0.53003 41.24C0.38003 42.14 0.78003 43.07 1.94003 43.3C5.38003 43.98 8.89003 48.54 11.77 50.66C14.89 52.96 18.18 54.97 21.59 56.8C15.44 63.6 9.36003 70.5 2.48003 76.57C1.43003 76.5 0.31003 77.13 0.29003 78.49C0.0500303 92.51 0.27003 106.52 0.94003 120.52C0.95003 120.69 0.97003 120.84 1.01003 120.99C0.68003 121.64 0.74003 122.43 1.51003 123.04C8.21003 128.32 14.91 133.59 21.61 138.87C15.19 145.35 8.60003 151.66 1.83003 157.79C-0.0799696 159.52 2.75003 162.34 4.66003 160.62C18.53 148.05 31.68 134.74 44.09 120.73C44.32 120.47 44.47 120.18 44.54 119.9C44.99 119.58 45.3 119.07 45.3 118.36V81.26C45.3 81.2 45.29 81.15 45.28 81.1C52.2 74.73 59.16 68.41 66.02 62C71.89 66.58 77.32 72.2 81.36 78.46C81.26 78.69 81.19 78.96 81.19 79.27C81.02 92.52 80.85 105.77 80.69 119.03C69.32 134.28 56.25 148.08 41.73 160.36C39.76 162.02 42.6 164.84 44.56 163.19C51.5 157.32 58.07 151.09 64.31 144.54C71.18 148.52 76.3 154.61 81.81 160.21C83.62 162.05 86.45 159.22 84.64 157.38C79.09 151.74 73.89 145.71 67.09 141.56C72.96 135.2 78.52 128.54 83.73 121.59C84.15 121.36 84.48 120.97 84.61 120.43C84.68 120.33 84.76 120.24 84.83 120.14C85.44 119.31 85.25 118.5 84.7 117.95C84.86 105.47 85.02 92.99 85.17 80.51C85.95 79.98 86.39 78.98 85.77 77.94C81.47 70.75 75.5 64.48 68.94 59.25C74.92 53.62 80.82 47.9 86.54 42Z" fill="#030405"/>
<path d="M86.54 203.15C87.62 202.03 87.02 200.56 85.97 199.98C85.37 187.09 85.08 174.19 85.12 161.29C85.13 158.72 81.13 158.71 81.12 161.29C81.08 174.78 81.38 188.26 82.04 201.73C82.04 201.82 82.06 201.89 82.08 201.97C69.14 215.17 55.36 227.53 41.76 240.05C41.05 240.71 41 241.52 41.33 242.18C41.32 242.25 41.31 242.32 41.31 242.4V279.01C41.3 279.02 41.28 279.03 41.27 279.05C35.8 285.23 30.17 291.26 24.42 297.16C17.93 292.05 11.43 286.94 4.94003 281.83C4.94003 281.78 4.95003 281.73 4.95003 281.68C4.30003 268.27 4.09003 254.86 4.28003 241.44C4.36003 241.39 4.43003 241.34 4.51003 241.28C18.01 229.6 28.33 214.63 42.04 203.28C43.08 203.34 44.16 202.71 44.13 201.36C43.86 187.92 44.41 174.5 45.78 161.13C46.04 158.57 42.04 158.59 41.78 161.13C40.46 173.96 39.91 186.82 40.11 199.71C34.42 204.3 29.33 209.53 24.38 214.92C20.01 212.63 15.81 210.02 11.93 206.95C9.55003 205.06 7.29003 202.22 4.39003 201.04C4.70003 187.7 4.57003 174.39 4.00003 161.08C3.89003 158.52 -0.10997 158.5 3.03194e-05 161.08C0.58003 174.56 0.70003 188.05 0.37003 201.54C0.36003 201.87 0.42003 202.15 0.53003 202.39C0.38003 203.29 0.78003 204.22 1.94003 204.45C5.38003 205.13 8.89003 209.69 11.77 211.81C14.89 214.11 18.18 216.12 21.59 217.95C15.43 224.75 9.35003 231.65 2.48003 237.72C1.43003 237.65 0.31003 238.28 0.29003 239.64C0.0500303 253.66 0.27003 267.67 0.94003 281.67C0.95003 281.84 0.97003 281.99 1.01003 282.14C0.68003 282.79 0.74003 283.58 1.51003 284.19C8.21003 289.47 14.91 294.74 21.61 300.02C15.2 306.49 8.60003 312.8 1.84003 318.93C-0.0699697 320.66 2.76003 323.48 4.67003 321.76C18.54 309.19 31.69 295.88 44.1 281.87C44.33 281.61 44.48 281.32 44.55 281.04C45 280.72 45.31 280.21 45.31 279.5V242.4C45.31 242.34 45.3 242.29 45.29 242.24C52.2 235.89 59.15 229.57 66.02 223.16C71.89 227.74 77.32 233.36 81.36 239.62C81.26 239.85 81.19 240.12 81.19 240.43C81.02 253.68 80.85 266.93 80.69 280.19C69.32 295.44 56.25 309.24 41.73 321.52C39.76 323.18 42.6 326 44.56 324.35C51.5 318.48 58.07 312.25 64.31 305.7C71.18 309.68 76.3 315.77 81.81 321.37C83.62 323.21 86.45 320.38 84.64 318.54C79.09 312.9 73.89 306.87 67.09 302.72C72.96 296.36 78.52 289.7 83.73 282.75C84.15 282.52 84.48 282.13 84.61 281.59C84.68 281.49 84.76 281.4 84.83 281.3C85.44 280.47 85.25 279.66 84.7 279.11C84.86 266.63 85.02 254.15 85.17 241.67C85.95 241.14 86.39 240.14 85.77 239.1C81.47 231.91 75.5 225.64 68.94 220.41C74.92 214.77 80.82 209.05 86.54 203.15Z" fill="#030405"/>
<path d="M86.54 364.07C87.62 362.95 87.02 361.48 85.97 360.9C85.37 348.01 85.08 335.11 85.12 322.21C85.13 319.64 81.13 319.63 81.12 322.21C81.08 335.7 81.38 349.18 82.04 362.65C82.04 362.74 82.06 362.81 82.08 362.89C69.14 376.09 55.36 388.45 41.76 400.97C41.05 401.63 41 402.44 41.33 403.1C41.32 403.17 41.31 403.24 41.31 403.32V439.93C41.3 439.94 41.28 439.95 41.27 439.97C35.8 446.15 30.17 452.18 24.42 458.08C17.93 452.97 11.43 447.86 4.94003 442.75C4.94003 442.7 4.95003 442.65 4.95003 442.6C4.30003 429.19 4.09003 415.78 4.28003 402.36C4.36003 402.31 4.43003 402.26 4.51003 402.2C18.01 390.52 28.33 375.55 42.04 364.2C43.08 364.26 44.16 363.63 44.13 362.28C43.86 348.84 44.41 335.42 45.78 322.05C46.04 319.49 42.04 319.51 41.78 322.05C40.46 334.88 39.91 347.74 40.11 360.63C34.42 365.22 29.33 370.45 24.38 375.84C20.01 373.55 15.81 370.94 11.93 367.87C9.55003 365.98 7.29003 363.14 4.39003 361.96C4.70003 348.63 4.57003 335.31 4.00003 322.01C3.89003 319.45 -0.10997 319.43 3.03194e-05 322.01C0.58003 335.49 0.70003 348.98 0.37003 362.47C0.36003 362.8 0.42003 363.08 0.53003 363.32C0.38003 364.22 0.78003 365.15 1.94003 365.38C5.38003 366.06 8.89003 370.62 11.77 372.74C14.89 375.04 18.18 377.05 21.59 378.88C15.43 385.68 9.35003 392.58 2.48003 398.65C1.43003 398.58 0.31003 399.21 0.29003 400.57C0.0500303 414.59 0.27003 428.6 0.94003 442.6C0.95003 442.77 0.97003 442.92 1.01003 443.07C0.68003 443.72 0.74003 444.51 1.51003 445.12C8.21003 450.4 14.91 455.67 21.61 460.95C15.19 467.43 8.60003 473.74 1.83003 479.87C-0.0799696 481.6 2.75003 484.42 4.66003 482.7C18.53 470.13 31.68 456.82 44.09 442.81C44.32 442.55 44.47 442.26 44.54 441.98C44.99 441.66 45.3 441.15 45.3 440.44V403.34C45.3 403.28 45.29 403.23 45.28 403.18C52.19 396.83 59.14 390.51 66.01 384.1C71.88 388.68 77.31 394.3 81.35 400.56C81.25 400.79 81.18 401.06 81.18 401.37C81.01 414.62 80.84 427.87 80.68 441.13C69.31 456.38 56.24 470.18 41.72 482.46C39.75 484.12 42.59 486.94 44.55 485.29C51.49 479.42 58.06 473.19 64.3 466.64C71.17 470.62 76.29 476.71 81.8 482.31C83.61 484.15 86.44 481.32 84.63 479.48C79.08 473.84 73.88 467.81 67.08 463.66C72.95 457.3 78.51 450.64 83.72 443.69C84.14 443.46 84.47 443.07 84.6 442.53C84.67 442.43 84.75 442.34 84.82 442.24C85.43 441.41 85.24 440.6 84.69 440.05C84.85 427.57 85.01 415.09 85.16 402.61C85.94 402.08 86.38 401.08 85.76 400.04C81.46 392.85 75.49 386.58 68.93 381.35C74.92 375.69 80.82 369.98 86.54 364.07Z" fill="#030405"/>
<path d="M86.54 525.23C87.62 524.11 87.02 522.64 85.97 522.06C85.37 509.17 85.08 496.27 85.12 483.37C85.13 480.8 81.13 480.79 81.12 483.37C81.08 496.86 81.38 510.34 82.04 523.81C82.04 523.9 82.06 523.97 82.08 524.05C69.14 537.25 55.36 549.61 41.76 562.13C41.05 562.79 41 563.6 41.33 564.26C41.32 564.33 41.31 564.4 41.31 564.48V601.09C41.3 601.1 41.28 601.11 41.27 601.13C35.8 607.31 30.17 613.34 24.42 619.24C17.93 614.13 11.43 609.02 4.94003 603.91C4.94003 603.86 4.95003 603.81 4.95003 603.76C4.30003 590.35 4.09003 576.94 4.28003 563.52C4.36003 563.47 4.43003 563.42 4.51003 563.36C18.01 551.68 28.33 536.71 42.04 525.36C43.08 525.42 44.16 524.79 44.13 523.44C43.86 510 44.41 496.58 45.78 483.21C46.04 480.65 42.04 480.67 41.78 483.21C40.46 496.04 39.91 508.9 40.11 521.79C34.42 526.38 29.33 531.61 24.38 537C20.01 534.71 15.81 532.1 11.93 529.03C9.55003 527.14 7.29003 524.3 4.39003 523.12C4.70003 509.78 4.57003 496.47 4.00003 483.16C3.89003 480.6 -0.10997 480.58 3.03194e-05 483.16C0.58003 496.64 0.70003 510.13 0.37003 523.62C0.36003 523.95 0.42003 524.23 0.53003 524.47C0.38003 525.37 0.78003 526.3 1.94003 526.53C5.38003 527.21 8.89003 531.77 11.77 533.89C14.89 536.19 18.18 538.2 21.59 540.03C15.43 546.83 9.35003 553.73 2.48003 559.8C1.43003 559.73 0.31003 560.36 0.29003 561.72C0.0500303 575.74 0.27003 589.75 0.94003 603.75C0.95003 603.92 0.97003 604.07 1.01003 604.22C0.68003 604.87 0.74003 605.66 1.51003 606.27C8.21003 611.55 14.91 616.82 21.61 622.1C15.19 628.58 8.60003 634.89 1.83003 641.02C-0.0799696 642.75 2.75003 645.57 4.66003 643.85C18.53 631.28 31.68 617.97 44.09 603.96C44.32 603.7 44.47 603.41 44.54 603.13C44.99 602.81 45.3 602.3 45.3 601.59V564.49C45.3 564.43 45.29 564.38 45.28 564.33C52.19 557.98 59.14 551.66 66.01 545.25C71.88 549.83 77.31 555.45 81.35 561.71C81.25 561.94 81.18 562.21 81.18 562.52C81.01 575.77 80.84 589.02 80.68 602.28C69.31 617.53 56.24 631.33 41.72 643.61C39.75 645.27 42.59 648.09 44.55 646.44C51.49 640.57 58.06 634.34 64.3 627.79C71.17 631.77 76.29 637.86 81.8 643.46C83.61 645.3 86.44 642.47 84.63 640.63C79.08 634.99 73.88 628.96 67.08 624.81C72.95 618.45 78.51 611.79 83.72 604.84C84.14 604.61 84.47 604.22 84.6 603.68C84.67 603.58 84.75 603.49 84.82 603.39C85.43 602.56 85.24 601.75 84.69 601.2C84.85 588.72 85.01 576.24 85.16 563.76C85.94 563.23 86.38 562.23 85.76 561.19C81.46 554 75.49 547.73 68.93 542.5C74.92 536.85 80.82 531.13 86.54 525.23Z" fill="#030405"/>
<path d="M86.54 685.69C87.62 684.57 87.02 683.1 85.97 682.52C85.37 669.63 85.08 656.73 85.12 643.83C85.13 641.26 81.13 641.25 81.12 643.83C81.08 657.32 81.38 670.8 82.04 684.27C82.04 684.36 82.06 684.43 82.08 684.51C69.14 697.71 55.36 710.07 41.76 722.59C41.05 723.25 41 724.06 41.33 724.72C41.32 724.79 41.31 724.86 41.31 724.94V761.55C41.3 761.56 41.28 761.57 41.27 761.59C35.8 767.77 30.17 773.8 24.42 779.7C17.93 774.59 11.43 769.48 4.94003 764.37C4.94003 764.32 4.95003 764.27 4.95003 764.22C4.30003 750.81 4.09003 737.4 4.28003 723.98C4.36003 723.93 4.43003 723.88 4.51003 723.82C18.01 712.14 28.33 697.17 42.04 685.82C43.08 685.88 44.16 685.25 44.13 683.9C43.86 670.46 44.41 657.04 45.78 643.67C46.04 641.11 42.04 641.13 41.78 643.67C40.46 656.5 39.91 669.36 40.11 682.25C34.42 686.84 29.33 692.07 24.38 697.46C20.01 695.17 15.81 692.56 11.93 689.49C9.55003 687.6 7.29003 684.76 4.39003 683.58C4.70003 670.24 4.57003 656.93 4.00003 643.62C3.89003 641.06 -0.10997 641.04 3.03194e-05 643.62C0.58003 657.1 0.70003 670.59 0.37003 684.08C0.36003 684.41 0.42003 684.69 0.53003 684.93C0.38003 685.83 0.78003 686.76 1.94003 686.99C5.38003 687.67 8.89003 692.23 11.77 694.35C14.89 696.65 18.18 698.66 21.59 700.49C15.43 707.29 9.35003 714.19 2.48003 720.26C1.43003 720.19 0.31003 720.82 0.29003 722.18C0.0500303 736.2 0.27003 750.21 0.94003 764.21C0.95003 764.38 0.97003 764.53 1.01003 764.68C0.68003 765.33 0.74003 766.12 1.51003 766.73C8.21003 772.01 14.91 777.28 21.61 782.56C15.19 789.04 8.60003 795.35 1.83003 801.48C-0.0799696 803.21 2.75003 806.03 4.66003 804.31C18.53 791.74 31.68 778.43 44.09 764.42C44.32 764.16 44.47 763.87 44.54 763.59C44.99 763.27 45.3 762.76 45.3 762.05V724.95C45.3 724.89 45.29 724.84 45.28 724.79C52.19 718.44 59.14 712.12 66.01 705.71C71.88 710.29 77.31 715.91 81.35 722.17C81.25 722.4 81.18 722.67 81.18 722.98C81.01 736.23 80.84 749.48 80.68 762.74C69.31 777.99 56.24 791.79 41.72 804.07C39.75 805.73 42.59 808.55 44.55 806.9C51.49 801.03 58.06 794.8 64.3 788.25C71.17 792.23 76.29 798.32 81.8 803.92C83.61 805.76 86.44 802.93 84.63 801.09C79.08 795.45 73.88 789.42 67.08 785.27C72.95 778.91 78.51 772.25 83.72 765.3C84.14 765.07 84.47 764.68 84.6 764.14C84.67 764.04 84.75 763.95 84.82 763.85C85.43 763.02 85.24 762.21 84.69 761.66C84.85 749.18 85.01 736.7 85.16 724.22C85.94 723.69 86.38 722.69 85.76 721.65C81.46 714.46 75.49 708.19 68.93 702.96C74.92 697.31 80.82 691.59 86.54 685.69Z" fill="#030405"/>
<path d="M86.54 846.84C87.62 845.72 87.02 844.25 85.97 843.67C85.37 830.78 85.08 817.88 85.12 804.98C85.13 802.41 81.13 802.4 81.12 804.98C81.08 818.47 81.38 831.95 82.04 845.42C82.04 845.51 82.06 845.58 82.08 845.66C69.14 858.86 55.36 871.22 41.76 883.74C41.05 884.4 41 885.21 41.33 885.87C41.32 885.94 41.31 886.01 41.31 886.09V922.7C41.3 922.71 41.28 922.72 41.27 922.74C35.8 928.92 30.17 934.95 24.42 940.85C17.93 935.74 11.43 930.63 4.94003 925.52C4.94003 925.47 4.95003 925.42 4.95003 925.37C4.30003 911.96 4.09003 898.55 4.28003 885.13C4.36003 885.08 4.43003 885.03 4.51003 884.97C18.01 873.29 28.33 858.32 42.04 846.97C43.08 847.03 44.16 846.4 44.13 845.05C43.86 831.61 44.41 818.19 45.78 804.82C46.04 802.26 42.04 802.28 41.78 804.82C40.46 817.65 39.91 830.51 40.11 843.4C34.42 847.99 29.33 853.22 24.38 858.61C20.01 856.32 15.81 853.71 11.93 850.64C9.55003 848.75 7.29003 845.91 4.39003 844.73C4.70003 831.39 4.57003 818.08 4.00003 804.77C3.89003 802.21 -0.10997 802.19 3.03194e-05 804.77C0.58003 818.25 0.70003 831.74 0.37003 845.23C0.36003 845.56 0.42003 845.84 0.53003 846.08C0.38003 846.98 0.78003 847.91 1.94003 848.14C5.38003 848.82 8.89003 853.38 11.77 855.5C14.89 857.8 18.18 859.81 21.59 861.64C15.43 868.44 9.35003 875.34 2.48003 881.41C1.43003 881.34 0.31003 881.97 0.29003 883.33C0.0500303 897.35 0.27003 911.36 0.94003 925.36C0.95003 925.53 0.97003 925.68 1.01003 925.83C0.68003 926.48 0.74003 927.27 1.51003 927.88C8.21003 933.16 14.91 938.43 21.61 943.71C15.19 950.19 8.60003 956.5 1.83003 962.63C-0.0799696 964.36 2.75003 967.18 4.66003 965.46C18.53 952.89 31.68 939.58 44.09 925.57C44.32 925.31 44.47 925.02 44.54 924.74C44.99 924.42 45.3 923.91 45.3 923.2V886.1C45.3 886.04 45.29 885.99 45.28 885.94C52.19 879.59 59.14 873.27 66.01 866.86C71.88 871.44 77.31 877.06 81.35 883.32C81.25 883.55 81.18 883.82 81.18 884.13C81.01 897.38 80.84 910.63 80.68 923.89C69.31 939.14 56.24 952.94 41.72 965.22C39.75 966.88 42.59 969.7 44.55 968.05C51.49 962.18 58.06 955.95 64.3 949.4C71.17 953.38 76.29 959.47 81.8 965.07C83.61 966.91 86.44 964.08 84.63 962.24C79.08 956.6 73.88 950.57 67.08 946.42C72.95 940.06 78.51 933.4 83.72 926.45C84.14 926.22 84.47 925.83 84.6 925.29C84.67 925.19 84.75 925.1 84.82 925C85.43 924.17 85.24 923.36 84.69 922.81C84.85 910.33 85.01 897.85 85.16 885.37C85.94 884.84 86.38 883.84 85.76 882.8C81.46 875.61 75.49 869.34 68.93 864.11C74.92 858.46 80.82 852.74 86.54 846.84Z" fill="#030405"/>
<path d="M1.37003 1005.93C1.36003 1006.26 1.42003 1006.54 1.53003 1006.78C1.38003 1007.68 1.78003 1008.61 2.94003 1008.84C6.38003 1009.52 9.89003 1014.08 12.77 1016.2C15.62 1018.3 18.62 1020.15 21.72 1021.85C23.54 1021.3 25.46 1022.24 26.65 1023.81C31.83 1018.12 37.12 1012.55 43.03 1007.65C44.07 1007.71 45.15 1007.08 45.12 1005.73C44.85 992.29 45.4 978.87 46.77 965.5C47.03 962.94 43.03 962.96 42.77 965.5C41.45 978.33 40.9 991.19 41.1 1004.08C35.41 1008.67 30.32 1013.9 25.37 1019.29C21 1017 16.8 1014.39 12.92 1011.32C10.54 1009.43 8.28003 1006.59 5.38003 1005.41C5.70003 992.09 5.57003 978.77 5.00003 965.46C4.89003 962.9 0.89003 962.88 1.00003 965.46C1.58003 978.95 1.71003 992.44 1.37003 1005.93Z" fill="#030405"/>
<path d="M86.97 1004.36C86.37 991.47 86.08 978.57 86.12 965.67C86.13 963.1 82.13 963.09 82.12 965.67C82.08 979.16 82.38 992.64 83.04 1006.11C83.04 1006.2 83.06 1006.27 83.08 1006.35C77.49 1012.05 71.74 1017.59 65.92 1023.06C66.63 1022.88 67.35 1022.71 68.08 1022.59C69.26 1022.4 70.64 1022.49 71.79 1023.02C77.13 1017.95 82.41 1012.82 87.53 1007.53C88.63 1006.41 88.02 1004.94 86.97 1004.36Z" fill="#030405"/>
</g>
<defs>
<clipPath id="clip0">
<rect width="1440" height="1024" fill="white"/>
</clipPath>
</defs>
</svg>
