<svg width="94" height="75" viewBox="0 0 94 75" fill="none" xmlns="http://www.w3.org/2000/svg">
<path d="M91.59 12.86C91.05 12.9 90.51 12.95 89.97 13C89.08 11.99 87.6 11.38 86.04 10.98C85.88 7.97001 85.71 4.96001 85.55 1.95001C85.44 -0.0699946 82.94 -0.729995 81.82 0.940005C80.12 3.47001 77.8 7.01001 75.03 8.52001C70.92 10.76 67.78 6.24001 65.52 3.35001C64.68 2.27001 63.01 2.80001 62.38 3.75001C60.91 6.00001 59.35 8.18001 57.73 10.31C54.71 10.74 51.74 11.35 48.84 12.15C48.41 11.26 48.01 10.38 47.63 9.73001C46.87 8.43001 44.93 8.43001 44.18 9.73001C43.18 11.44 42.19 13.15 41.19 14.86C40.1 15.34 39.04 15.87 38.01 16.43C37.11 15.76 36.19 15.13 35.22 14.52C34.24 13.91 32.46 14.43 32.28 15.72C32.04 17.49 31.72 19.23 31.27 20.95C29.44 22.41 27.67 24 25.99 25.7C25.28 25.31 24.64 24.94 24.38 24.82C22.96 24.17 21.48 24.95 21.37 26.55C21.32 27.23 21.42 29.16 21.37 30.84C20.49 31.93 19.63 33.03 18.82 34.16C17.2 33.99 15.34 32.8 14.16 32.36C12.32 31.67 11.3 33.89 11.9 35.3C12.87 37.59 12.92 40.54 13.57 43.07C13.44 43.39 13.3 43.71 13.17 44.03C9.78001 43.83 6.49001 43.2 3.16001 42.09C1.93001 41.68 1.05001 42.45 0.800007 43.42C-0.129993 44.19 -0.439993 45.91 0.870007 46.85C4.04001 49.12 7.31001 51.3 11.19 52.09C10.62 56.33 10.66 60.68 10.88 65.07C9.56001 70.01 9.44001 74.31 15.77 74.07C24.3 73.74 32.96 73.12 41.28 71.09C56.95 67.26 69.25 57.24 77.94 43.84C82.68 36.53 85.73 28.64 88.89 20.58C89.31 19.51 90.04 18.24 90.46 16.95C90.83 16.92 91.21 16.88 91.58 16.85C94.13 16.65 94.16 12.65 91.59 12.86ZM81.86 7.69001C81.91 8.56001 81.95 9.42001 82 10.29C81.89 10.28 81.77 10.26 81.67 10.25C81.05 10.17 80.41 10.11 79.77 10.04C80.5 9.30001 81.2 8.51001 81.86 7.69001ZM64.25 8.13001C64.65 8.61001 65.08 9.10001 65.54 9.59001C64.74 9.63001 63.93 9.67001 63.13 9.73001C63.51 9.20001 63.88 8.67001 64.25 8.13001ZM59.46 14.61C59.5 14.56 59.54 14.51 59.58 14.45C60.96 14.31 62.34 14.2 63.73 14.13C67.76 13.9 71.83 13.84 75.87 13.91C77.25 13.93 78.97 13.83 80.61 13.94C72.53 14.88 64.35 16.25 56.5 18.47C57.62 17.13 58.65 15.62 59.46 14.61ZM41.95 35.85C43.37 34.88 44.84 33.96 46.31 33.06C43.04 35.88 39.58 39.86 42.04 43.49C42.29 43.86 42.57 44.18 42.86 44.47C41.93 44.76 41.01 44.78 40.14 44.29C39.78 43.98 39.48 43.65 39.22 43.31C38.94 42.56 38.76 41.72 38.73 40.74C38.7 39.83 38.76 38.94 38.9 38.08C39.87 37.26 40.88 36.51 41.95 35.85ZM48.54 41.28C48.33 41.37 48.12 41.48 47.9 41.6C47.48 40.61 47.07 39.61 46.65 38.62C47.41 37.74 48.21 36.91 49.05 36.11C49.51 35.67 51.02 34.42 52.75 33.24C51.97 34.49 52.48 36.46 54.3 36.27C53.69 36.33 53.02 38.22 52.16 39.95C50.93 40.39 49.68 40.79 48.54 41.28ZM54.31 32.27C54.28 32.27 54.26 32.28 54.23 32.29C57.14 30.54 60.03 29.63 59.33 33.4C59.05 34.89 58.42 36.01 57.58 36.91C57.99 34.31 57.42 31.95 54.31 32.27ZM45.87 47.54C46.5 47.14 47.12 46.73 47.74 46.32C50.14 46.28 52.62 45.2 54.37 43.57C55.72 43.12 57.03 42.58 58.22 41.72C56.24 44.48 53.79 46.56 50.03 47.28C48.65 47.54 47.23 47.64 45.87 47.54ZM44.44 29.51C43.9 29.84 43.3 30.18 42.68 30.54C43.47 29.73 44.37 28.99 45.37 28.34C47.32 27.08 49.48 26.03 51.72 25.21C49.03 26.62 46.5 28.27 44.44 29.51ZM35.43 35.96C34.96 36.56 34.58 37.21 34.31 37.9C34.34 37.53 34.36 37.17 34.37 36.82C34.39 35.4 33.19 34.77 32.09 34.91C33.97 33.36 35.91 31.96 37.87 30.72C36.86 32.34 36.01 34.13 35.43 35.96ZM34.01 41.4C34.16 42.16 34.44 42.98 34.82 43.78C34.99 44.56 35.25 45.31 35.6 46.02C35.36 45.78 35.14 45.53 34.96 45.28C34.16 44.13 33.98 42.79 34.01 41.4ZM63.83 40.27C61.53 45.01 58.11 49.12 52.98 50.95C51.89 51.34 50.8 51.56 49.7 51.65C55.73 50.6 60.49 45.91 63.83 40.27ZM53.7 15.27C51.93 17.34 52.76 17.15 51.24 15.77C52.05 15.59 52.87 15.42 53.7 15.27ZM35.08 23.02C35.76 22.52 36.44 22.02 37.14 21.56C37.3 21.45 37.47 21.36 37.64 21.25C37.99 21.55 38.33 21.84 38.67 22.15C39.61 23.01 41.14 22.9 41.81 21.75C42.54 20.5 43.26 19.26 43.99 18.01C44.93 17.63 45.88 17.29 46.84 16.98C47.68 18.45 48.66 19.81 49.81 20.61C45.13 22.3 40.62 24.37 36.38 26.91C34.97 27.76 33.56 28.7 32.17 29.72C33.59 28.16 34.48 25.61 35.08 23.02ZM19.7 40.06C19.98 39.62 20.29 39.18 20.58 38.74C21.39 38.67 22.19 38.39 22.97 37.79C24.46 36.66 25 34.64 25.2 32.5C25.76 31.83 26.34 31.17 26.92 30.52C28.27 31.03 29.64 31.25 30.84 30.71C26.19 34.35 21.82 38.91 18.43 44.01C18.31 43.89 18.16 43.59 18 43.13C18.5 42.12 19.05 41.08 19.7 40.06ZM85.68 17.9C83.93 26.07 79.02 34.85 74.49 41.83C70.07 48.66 64.53 54.91 57.81 59.55C50.77 64.41 42.68 67.06 34.3 68.44C29.9 69.17 25.44 69.54 20.99 69.81C20.22 69.86 14.38 70.66 14.04 70.15C13.9 69.95 13.9 69.54 13.96 69.05C15.03 69.14 16.09 68.52 15.93 67.16C14.54 55.49 21.48 44.29 30.43 36.31C30.39 36.46 30.37 36.62 30.37 36.8C30.33 39.54 29.25 42.39 30.19 45.07C31.08 47.62 33.41 49.39 35.5 50.94C40.4 54.55 46.56 56.75 52.64 55.21C58.25 53.79 62.84 49.72 65.85 44.9C68.84 40.11 71.94 32.7 71.52 26.94C71.25 23.25 69.5 21.13 66.97 20.06C73.21 18.82 79.55 17.99 85.78 17.38C85.76 17.55 85.72 17.71 85.68 17.9Z" fill="#030405"/>
</svg>
