<svg width="121" height="61" viewBox="0 0 121 61" fill="none" xmlns="http://www.w3.org/2000/svg">
<path d="M120.282 26.0089C118.862 24.6889 116.332 23.3889 114.062 21.8689C114.102 21.8289 114.152 21.7989 114.192 21.7589C117.092 19.0289 117.612 12.4489 118.672 8.75888C119.082 7.32888 117.672 5.84892 116.212 6.29892C112.912 7.31892 109.602 8.34887 106.302 9.36887C104.382 9.95887 101.212 10.3889 99.6523 11.8789C98.4223 13.0489 97.9923 15.1589 97.4523 16.6589C96.8523 18.3189 95.7423 20.4589 95.2223 22.4789C94.3323 22.6589 93.4523 22.8789 92.5723 23.1289C92.1523 16.2189 87.3423 12.0489 79.8723 11.1289C75.0723 10.5389 66.9523 10.7889 62.7923 14.5589C60.6223 8.64887 55.5823 3.07888 50.3023 1.12888C43.1923 -1.50112 30.6823 0.568873 25.4123 6.24887C19.5723 12.5289 21.9323 22.1189 26.1623 28.5189C28.1323 31.4989 30.4723 34.2089 32.7323 36.9689C24.6623 39.1989 16.5023 40.6189 8.18229 41.2189C9.61229 39.9189 11.1223 38.7089 12.7723 37.5789C14.8823 36.1289 12.8823 32.6589 10.7523 34.1289C6.8923 36.7789 3.52228 39.8189 0.54228 43.4489C-0.77772 45.0589 0.482293 47.0889 2.49229 46.7889C7.22229 46.0889 13.8823 51.0389 18.0523 53.0989C20.3723 54.2489 22.1823 51.1189 20.0723 49.6489C17.5123 47.8689 14.8623 46.2889 12.1223 44.8989C19.6423 44.1389 27.0723 42.7389 34.3823 40.6789C34.7623 40.5689 35.0423 40.3889 35.2623 40.1689C35.8023 40.8789 36.3223 41.5989 36.8223 42.3289C40.4123 47.6089 43.3223 53.2989 46.1223 59.0189C46.4923 59.7789 47.5923 60.1989 48.3823 59.9389C58.3323 56.7089 68.2523 52.5989 77.1223 46.9989C84.2823 42.4789 90.8923 35.9889 92.3223 27.3189C93.3723 27.0489 94.4323 26.7989 95.4923 26.5789C96.7423 29.2889 99.8623 32.5689 101.862 33.2289C103.532 33.7789 105.112 32.8189 106.622 32.2889C110.622 30.8889 114.642 29.9389 118.862 29.4489C120.462 29.2389 121.672 27.2989 120.282 26.0089ZM110.332 18.5789C109.432 17.3389 109.012 15.9489 109.462 14.3289C109.662 13.5889 109.472 12.9789 109.092 12.5489C110.702 12.0589 112.332 11.5889 113.952 11.1289C113.242 13.9889 112.402 16.7689 110.332 18.5789ZM106.272 19.6189C106.432 19.8889 106.602 20.1489 106.792 20.4089C106.462 20.5189 106.122 20.5989 105.782 20.6889C105.932 20.3289 106.092 19.9689 106.272 19.6189ZM110.332 26.6289C109.452 25.8989 108.532 25.1889 107.632 24.4589C108.582 24.2689 109.522 24.0489 110.402 23.7689C111.542 24.5989 112.762 25.3789 113.942 26.1689C112.812 26.3789 111.692 26.6089 110.582 26.8889C110.502 26.7989 110.422 26.7089 110.332 26.6289ZM104.662 14.0789C104.772 14.0389 104.882 14.0089 104.982 13.9589C103.452 16.1189 101.422 19.0389 101.082 21.5889C100.632 21.6489 100.182 21.7189 99.7323 21.7789C100.112 20.6489 100.672 19.5289 101.022 18.5589C101.912 16.0789 101.842 15.1989 104.662 14.0789ZM82.1823 37.9889C73.5723 46.6689 60.4023 51.7489 48.8723 55.5489C45.6023 48.9489 42.1223 42.4589 37.6123 36.5989C33.0523 30.6689 26.3423 24.7889 25.9423 16.7989C25.4423 6.96892 35.5423 4.27892 43.5823 4.16892C51.9723 4.04892 60.7823 13.0489 59.8423 21.6989C59.5623 24.2589 63.5623 24.2389 63.8423 21.6989C63.8723 21.4389 63.8723 21.1689 63.8823 20.8989C63.9923 20.7089 64.0823 20.4889 64.1223 20.2289C65.2923 12.8789 82.2923 13.4889 86.4923 17.6589C88.3623 19.5189 89.0123 21.8589 88.8923 24.3289C82.7823 26.5289 76.7523 29.4689 70.4223 29.4689C67.8523 29.4689 67.8423 33.4689 70.4223 33.4689C75.6723 33.4689 80.2023 31.6189 84.9923 29.6789C86.0023 29.2689 87.0223 28.9089 88.0323 28.5689C86.7623 32.2789 84.3423 35.8189 82.1823 37.9889ZM102.962 29.1489C102.142 28.9489 100.732 27.0889 99.9423 25.6889C100.272 25.6289 100.592 25.5689 100.922 25.5089C101.352 25.4289 101.822 25.3589 102.322 25.2889C103.342 26.4389 104.782 27.4589 106.022 28.3489C104.972 28.8089 103.702 29.3189 102.962 29.1489Z" fill="white"/>
</svg>
