<svg width="103" height="55" viewBox="0 0 103 55" fill="none" xmlns="http://www.w3.org/2000/svg">
<path d="M101.58 22.2795C86.6199 14.4095 71.3999 7.05952 55.9299 0.239524C55.0599 -0.140476 54.2299 -0.0904751 53.5099 0.549525C49.4999 4.10952 46.7999 8.32953 45.1199 13.4095C44.8599 14.2095 45.2899 15.2695 46.0399 15.6695C46.2699 15.7895 46.4898 15.8995 46.7198 16.0195C46.6998 16.1395 46.6599 16.2495 46.6399 16.3695C46.2699 18.3895 48.4098 19.6195 49.9798 18.3195C50.1398 18.1895 50.3098 18.0595 50.4698 17.9295C53.6698 19.5495 56.8899 21.1295 60.1399 22.6395C43.6399 22.5995 27.1399 22.5695 10.6399 22.5295C10.1499 20.9695 7.4899 20.5995 6.7999 22.5195H4.59983C3.84983 22.5195 3.32986 22.8595 3.00986 23.3395C2.36986 23.4595 1.78992 23.8895 1.56992 24.7095C0.0899225 30.1495 -0.360107 35.5395 0.289893 41.1495C0.409893 42.1695 1.10989 43.2295 2.28989 43.1495C13.8299 42.3495 25.3599 41.5495 36.8999 40.7495C46.9999 40.0495 57.1499 39.0295 67.2899 39.2795C65.3699 41.5795 63.3398 43.9495 61.9798 46.4095C61.2698 47.6995 60.5798 49.1195 61.3498 50.5895C62.2998 52.3995 64.9899 52.6795 66.6699 53.1095C68.9099 53.6895 72.0799 55.0195 74.4199 54.0995C76.5999 53.2395 78.0399 50.6795 79.4399 48.9495C81.1099 46.8895 82.7399 44.7895 84.3699 42.6995C85.1299 42.6895 85.8899 42.6795 86.6599 42.6495C88.2199 42.5895 89.5199 40.3895 88.0699 39.2395C87.8799 39.0895 87.6899 38.9395 87.4999 38.7895C89.6999 36.1295 91.9798 33.5795 94.4798 31.2495C94.8198 31.0895 95.1198 30.8595 95.3398 30.5795C95.4098 30.4895 95.4599 30.3895 95.5199 30.2995C97.3999 28.6395 99.3899 27.0995 101.57 25.7395C102.8 24.9695 102.95 22.9995 101.58 22.2795ZM87.5898 21.7095C87.2098 21.9795 86.8498 22.2995 86.4898 22.6495C85.3298 22.1995 84.1799 22.4795 83.0199 23.1195C82.0799 19.4995 76.1398 18.1095 72.2398 17.9795C72.1898 16.3195 72.2199 14.6695 72.3299 12.9895C72.3499 12.6395 72.2899 12.3395 72.1699 12.0895C78.2699 14.9795 84.3298 17.9595 90.3498 21.0195C89.3798 20.6795 88.4998 21.0595 87.5898 21.7095ZM75.0998 38.2995C75.0798 38.2995 75.0699 38.2995 75.0499 38.2995C75.4399 37.1995 75.8999 36.1195 76.4299 35.0495C77.9499 36.2595 79.4698 37.4695 80.9898 38.6795C79.0398 38.6195 77.0698 38.4995 75.0998 38.2995ZM65.8999 19.4795C66.0099 19.9895 66.0899 20.5095 66.1699 21.0295C65.7199 20.8295 65.2699 20.6295 64.8199 20.4195C65.1799 20.1095 65.5399 19.7895 65.8999 19.4795ZM80.3299 33.0695C79.7799 32.6295 79.2199 32.1895 78.6699 31.7495C78.9299 31.4395 79.1998 31.1295 79.4698 30.8095C79.4898 30.7895 79.5199 30.7895 79.5399 30.7695C79.9899 30.4395 81.1399 29.4695 82.2899 28.5895C81.6799 29.5995 81.0899 30.5495 80.5199 31.3495C80.0899 31.9595 80.0799 32.5695 80.3299 33.0695ZM55.3199 4.33952C60.2599 6.52952 65.1599 8.78952 70.0399 11.0895C69.6299 11.1395 69.2299 11.2995 68.9099 11.5795C68.3699 12.0495 67.8399 12.5095 67.2999 12.9795C66.5699 12.7895 65.6798 12.8195 64.5998 13.0095C64.3198 13.0595 64.0099 13.1295 63.6899 13.2095C63.7199 12.7895 63.7399 12.3795 63.7799 11.9495C63.9099 10.6895 62.3899 9.62952 61.2499 10.0195C60.9399 10.1295 60.6299 10.2295 60.3199 10.3395C60.2399 10.0695 60.1399 9.76952 60.0099 9.39952C59.6099 8.23952 58.2199 7.45952 57.0699 8.19952C56.5099 8.56952 55.9499 8.93953 55.3999 9.31953C55.2199 8.70953 54.9999 8.10952 54.6199 7.55952C54.2799 7.05952 53.7698 6.73952 53.2198 6.62952C53.8798 5.82952 54.5599 5.06952 55.3199 4.33952ZM69.4798 26.6595C70.4998 26.6595 71.2799 25.7695 71.4499 24.8295C72.2399 24.5395 73.0199 24.2295 73.8899 24.4995C75.6999 25.0495 74.9499 25.4895 75.4199 27.1295C75.5699 27.6395 75.6998 28.0495 75.8498 28.4295C75.6798 28.6595 75.5098 28.8795 75.3498 29.1095C74.9598 28.7995 74.5599 28.4795 74.1699 28.1695C72.8999 27.1595 70.7199 27.6995 70.7599 29.5795C70.7799 30.7195 70.7099 31.7795 70.5399 32.8395C67.5099 30.4295 63.0699 26.9695 60.5799 28.6695C60.0199 29.0495 59.1799 31.5295 59.3999 31.7195C58.7099 31.7695 54.7099 28.5895 52.2799 26.6295C58.0099 26.6295 63.7398 26.6495 69.4798 26.6595ZM9.76987 26.5295C11.5899 26.5295 13.4198 26.5395 15.2398 26.5395C12.3798 29.7795 9.86992 33.2295 7.68992 36.9295C7.64992 34.3395 8.86987 29.6595 9.76987 26.5295ZM46.8899 30.1295C45.3099 28.9495 43.7199 27.7795 42.1399 26.5995C43.9199 26.5995 45.6998 26.6095 47.4798 26.6095C47.2798 27.7795 47.0899 28.9495 46.8899 30.1295ZM37.6799 26.6695C37.2299 28.6195 36.7398 30.5595 36.2298 32.4895C34.6898 30.9995 33.1999 29.4595 31.7799 27.8395C30.7999 26.7195 28.7599 27.3095 28.4399 28.7195C28.3099 29.2795 28.1899 29.8395 28.0599 30.3895C27.3099 29.3995 26.6099 28.3695 25.9499 27.2795C25.7599 26.9695 25.4999 26.7295 25.1999 26.5695C29.3699 26.5795 33.5399 26.5895 37.6999 26.5995C37.6999 26.6195 37.6899 26.6395 37.6799 26.6695ZM22.4999 27.2795C21.6999 28.6695 20.8998 30.0595 20.0898 31.4395C19.6398 30.1395 19.3299 28.7995 19.1899 27.3295C19.1599 27.0595 19.0799 26.7895 18.9499 26.5495C20.3799 26.5495 21.7998 26.5595 23.2298 26.5595C22.9398 26.7195 22.6799 26.9595 22.4999 27.2795ZM16.0299 31.7695C16.5299 33.4895 17.2199 35.1495 18.1599 36.7995C18.8999 38.0995 20.8698 38.0895 21.6098 36.7995C22.5198 35.2195 23.4298 33.6495 24.3398 32.0695C25.3698 33.4895 26.4699 34.8495 27.6899 36.1595C28.6899 37.2295 30.6999 36.7295 31.0299 35.2795C31.1699 34.6495 31.3199 34.0295 31.4599 33.3995C32.6199 34.5995 33.8199 35.7595 35.0599 36.8895C27.1599 37.4395 19.2598 37.9795 11.3498 38.5295C12.7798 36.1595 14.3299 33.9195 16.0299 31.7695ZM40.8398 30.5895C42.9898 32.1895 45.1499 33.7895 47.2999 35.3895C48.2799 36.1195 50.0398 35.3895 50.2398 34.1895C50.4498 32.9595 50.6498 31.7295 50.8598 30.4995C52.9798 32.2095 55.1699 34.0295 57.4399 35.1795C57.5699 35.2495 57.7098 35.3095 57.8398 35.3795C51.6398 35.6195 45.4399 36.1395 39.2599 36.5895C39.8299 34.5895 40.3498 32.5895 40.8398 30.5895ZM5.24985 26.5195C5.33985 26.5195 5.43988 26.5195 5.52988 26.5195C5.13988 27.7995 4.74991 29.1995 4.42991 30.6395C4.62991 29.2695 4.89985 27.8995 5.24985 26.5195ZM61.4698 35.2695C62.2098 34.3695 62.6398 32.5495 62.9898 32.4195C63.1298 32.3695 65.1299 33.8295 67.0699 35.2695C65.1999 35.2295 63.3398 35.2395 61.4698 35.2695ZM67.6199 45.5795C67.6699 45.5095 67.7299 45.4395 67.7799 45.3695C67.8499 45.7095 68.0199 45.9295 68.2899 46.0395C67.3099 46.7095 67.0399 48.4195 68.0399 49.3395C67.9399 49.3095 67.8298 49.2795 67.7298 49.2595C64.1498 48.3295 65.4899 48.3795 67.6199 45.5795ZM75.6299 47.3395C75.0999 47.9895 74.3298 49.3295 73.5998 49.7295C73.4598 49.8095 73.2899 49.8595 73.1199 49.9095C73.2399 49.6595 73.3199 49.3895 73.3199 49.0995C73.3099 47.4995 73.4099 45.9295 73.6199 44.3795C74.5299 44.3295 75.4499 44.2395 76.4099 44.0795C77.0899 43.9595 77.6798 43.2595 77.8498 42.5295C78.3698 42.5695 78.8899 42.5895 79.4099 42.6095C78.1599 44.1995 76.9199 45.7895 75.6299 47.3395ZM81.6699 34.1295C82.4599 34.3595 83.3798 34.1895 83.9798 33.3595C84.7998 32.2095 85.6199 30.9095 86.4599 29.6095C86.4599 29.6195 86.4698 29.6295 86.4698 29.6295C86.7798 30.0095 87.9799 30.6095 89.1599 30.9395C87.5099 32.6695 85.9399 34.4695 84.4099 36.3195C83.4999 35.5895 82.5899 34.8595 81.6699 34.1295ZM94.9199 25.6095C94.1399 24.7295 93.1299 24.2095 92.3299 23.2595C91.8799 22.7195 91.7999 21.9395 91.1899 21.4695C91.1199 21.4095 91.0498 21.3795 90.9798 21.3295C92.8798 22.2995 94.7799 23.2495 96.6699 24.2395C96.0699 24.6795 95.4999 25.1495 94.9199 25.6095Z" fill="#030405"/>
</svg>
